<svg width="900" height="500" viewBox="0 0 900 500" fill="none" xmlns="http://www.w3.org/2000/svg">
  <rect width="900" height="500" rx="40" fill="#0F172A"/>
  <rect x="80" y="70" width="520" height="320" rx="36" fill="#1D4ED8"/>
  <path d="M150 180H500V320H150V180Z" fill="#93C5FD"/>
  <rect x="200" y="220" width="180" height="30" rx="15" fill="#EFF6FF"/>
  <rect x="200" y="270" width="260" height="24" rx="12" fill="#EFF6FF" opacity="0.8"/>
  <rect x="200" y="310" width="220" height="24" rx="12" fill="#EFF6FF" opacity="0.6"/>
  <rect x="620" y="140" width="160" height="240" rx="32" fill="#3B82F6"/>
  <path d="M640 180H760V220H640V180Z" fill="#EFF6FF"/>
  <circle cx="700" cy="300" r="40" fill="#EFF6FF"/>
  <path d="M120 400C180 430 240 430 300 400" stroke="#60A5FA" stroke-width="20" stroke-linecap="round"/>
  <path d="M360 400C420 430 480 430 540 400" stroke="#60A5FA" stroke-width="20" stroke-linecap="round"/>
  <text x="450" y="470" text-anchor="middle" fill="#E2E8F0" font-size="40" font-family="Inter, sans-serif">ShopHub</text>
</svg>
